<?xml version="1.0" standalone="no"?>
<!DOCTYPE svg PUBLIC "-//W3C//DTD SVG 1.1//EN" "http://www.w3.org/Graphics/SVG/1.1/DTD/svg11.dtd" >
<svg xmlns="http://www.w3.org/2000/svg" xmlns:xlink="http://www.w3.org/1999/xlink" version="1.1">
<metadata></metadata>
<defs>
<font id="aaux_proregular_osfregular" horiz-adv-x="656" >
<font-face units-per-em="1000" ascent="800" descent="-200" />
<missing-glyph horiz-adv-x="270" />
<glyph unicode="&#xd;" horiz-adv-x="270" />
<glyph unicode=" "  horiz-adv-x="270" />
<glyph unicode="&#x09;" horiz-adv-x="270" />
<glyph unicode="&#xa0;" horiz-adv-x="270" />
<glyph unicode="!" horiz-adv-x="280" d="M187 698v-336l-10 -190h-53l-11 190v336h74zM200 42q0 -21 -14.5 -35.5t-35.5 -14.5t-35.5 14.5t-14.5 35.5t14.5 35.5t35.5 14.5t35.5 -14.5t14.5 -35.5z" />
<glyph unicode="&#x22;" horiz-adv-x="340" d="M280 547h-76v151q0 16 11 27.5t27 11.5t27 -11.5t11 -27.5v-151zM136 547h-76v151q0 16 11 27.5t27 11.5t27 -11.5t11 -27.5v-151z" />
<glyph unicode="#" horiz-adv-x="659" d="M617 452l-13 -62h-114l-30 -138h114l-13 -62h-114l-41 -190h-63l41 190h-139l-41 -190h-63l41 190h-114l13 62h114l30 138h-114l13 62h114l41 190h63l-41 -190h139l41 190h63l-41 -190h114zM427 390h-139l-30 -138h139z" />
<glyph unicode="$" horiz-adv-x="496" d="M453 164q0 -69 -51 -113q-46 -41 -117 -48v-49h-65v50q-67 7 -112 42q-52 39 -64 106l64 18q17 -90 112 -102v200q-73 17 -107 41q-50 34 -50 99q0 63 49 101q43 33 108 39v54h65v-55q107 -13 155 -116l-60 -27q-31 68 -95 78v-163q80 -19 116 -46q52 -38 52 -109z M220 335v148q-91 -10 -91 -75q0 -49 91 -73zM387 164q0 64 -102 90v-186q44 6 71 29q31 26 31 67z" />
<glyph unicode="%" horiz-adv-x="736" d="M679 170q0 -75 -29 -122q-35 -57 -106 -57t-107 57q-29 47 -29 122q0 76 29 123q36 56 107 56t106 -56q29 -47 29 -123zM543 636l-281 -636h-63l281 636h63zM334 466q0 -76 -29 -123q-36 -56 -107 -56t-106 56q-30 46 -30 122q0 75 30 123q35 57 106 57t107 -57 q29 -47 29 -122zM623 170q0 124 -79 124q-80 0 -80 -124t80 -124q79 0 79 124zM278 466q0 123 -80 123t-80 -123q0 -50 17 -83q20 -41 63 -41q80 0 80 124z" />
<glyph unicode="&#x26;" horiz-adv-x="661" d="M621 411q0 -76 -59 -98q0 -49 -10 -93q-13 -61 -43 -108q42 -36 84 -66l-45 -46q-40 29 -79 64q-77 -74 -194 -74q-92 0 -155 46q-70 51 -70 138q0 117 128 211q-63 94 -63 155t40.5 101.5t104.5 40.5t109 -33q48 -36 48 -97q0 -21 -19 -92q-18 -66 -15 -73q9 -22 75 -22 h46q29 0 42 9t13 37h62zM497 304h-14q-87 0 -122 23q-30 19 -30 61q0 20 10.5 75.5t10.5 88.5t-30 53q-26 16 -62 16t-58 -23t-22 -58q0 -59 101 -189q78 -100 179 -195q35 62 37 148zM421 106q-119 112 -206 227q-101 -74 -101 -165q0 -55 51 -87q45 -28 110 -28 q89 0 146 53z" />
<glyph unicode="'" horiz-adv-x="196" d="M136 547h-76v151q0 16 11 27.5t27 11.5t27 -11.5t11 -27.5v-151z" />
<glyph unicode="(" horiz-adv-x="327" d="M287 0h-90q-69 65 -108 159t-39 190t39.5 190.5t107.5 158.5h90q-77 -59 -120.5 -153.5t-43.5 -195.5q0 -100 43 -193q44 -97 121 -156z" />
<glyph unicode=")" horiz-adv-x="327" d="M277 349q0 -96 -39 -190t-109 -159h-89q77 59 121 156q43 93 43 193q0 101 -43.5 195.5t-120.5 153.5h89q69 -64 108.5 -158.5t39.5 -190.5z" />
<glyph unicode="*" horiz-adv-x="436" d="M391 556l-130 -39l82 -107l-49 -35l-76 111l-77 -111l-49 35l83 107l-130 39l19 57l127 -45l-4 135h61l-4 -135l128 45z" />
<glyph unicode="+" horiz-adv-x="501" d="M456 243h-175v-175h-61v175h-175v61h175v175h61v-175h175v-61z" />
<glyph unicode="," horiz-adv-x="220" d="M155 -14l-78 -121h-12v179q0 17 13 29.5t32 12.5t32 -12.5t13 -29.5v-58z" />
<glyph unicode="-" horiz-adv-x="397" d="M332 243h-267v61h267v-61z" />
<glyph unicode="." horiz-adv-x="237" d="M172 45q0 -22 -16 -37.5t-38 -15.5t-37.5 15.5t-15.5 37.5t15.5 37.5t37.5 15.5t38 -15.5t16 -37.5z" />
<glyph unicode="/" horiz-adv-x="394" d="M389 774l-314 -850h-70l315 850h69z" />
<glyph unicode="0" horiz-adv-x="597" d="M532 242q0 -114 -57 -178q-61 -68 -176 -68t-176 68q-58 64 -58 178q0 115 58 179q61 68 176 68t176 -68q57 -64 57 -179zM464 242q0 180 -165 180q-166 0 -166 -180q0 -179 166 -179q165 0 165 179z" />
<glyph unicode="1" horiz-adv-x="396" d="M296 0h-67v389l-126 -76l-33 57l190 114h36v-484z" />
<glyph unicode="2" horiz-adv-x="585" d="M520 0h-445v59q20 72 114 123q80 36 161 72t81 77q0 95 -143 95q-105 0 -146 -95l-61 28q28 63 82.5 98t124.5 35q213 0 213 -167q0 -55 -55 -94q-35 -26 -121 -59q-78 -30 -108 -46q-54 -29 -64 -59h367v-67z" />
<glyph unicode="3" horiz-adv-x="513" d="M468 -10q0 -92 -62 -147.5t-158 -55.5q-153 0 -206 135l61 34q34 -102 145 -102q65 0 107.5 37.5t42.5 98.5q0 135 -172 134v61q156 -1 156 120q0 52 -41.5 87.5t-97.5 35.5q-46 0 -83 -25t-54 -71l-59 35q59 126 198 126q87 0 146.5 -52t59.5 -136q0 -102 -82 -148 q99 -49 99 -167z" />
<glyph unicode="4" horiz-adv-x="539" d="M494 4h-52v-217h-69v217h-333v60l299 460h79l-292 -453h247v281l69 -13v-268h52v-67z" />
<glyph unicode="5" horiz-adv-x="532" d="M487 23q0 -106 -61 -171q-63 -69 -172 -69q-68 0 -122 33.5t-80 97.5l61 36q32 -100 142 -100q78 0 122 48q41 47 41 125t-40 124q-43 48 -120 48q-73 0 -129 -51h-60v340h373v-65h-307v-195q54 37 122 37q110 0 170 -65.5t60 -172.5z" />
<glyph unicode="6" horiz-adv-x="540" d="M495 212q0 -93 -63 -155.5t-156 -62.5q-103 0 -165 72q-60 69 -60 173q0 291 248 463l42 -41q-165 -127 -207 -280q53 59 143 59q97 0 157.5 -65.5t60.5 -162.5zM428 212q0 68 -41.5 115t-109.5 47q-73 0 -115.5 -42.5t-42.5 -115.5q0 -63 47.5 -110t110.5 -47 q64 0 107.5 44t43.5 109z" />
<glyph unicode="7" horiz-adv-x="501" d="M464 423q-238 -260 -228 -637l-75 21q1 205 69 370q49 119 145 240h-271v-49h-69v116h429v-61z" />
<glyph unicode="8" horiz-adv-x="540" d="M495 197q0 -93 -67 -150q-62 -54 -158 -54t-159 54q-66 57 -66 150q0 122 97 170q-78 46 -78 149q0 82 60 135t146 53t145 -51q61 -54 61 -137q0 -103 -79 -149q98 -48 98 -170zM406 516q0 53 -40 88t-96 35t-96 -35t-40 -88q0 -58 37.5 -89t98.5 -31q62 0 99 31t37 89z M424 197q0 66 -42.5 104.5t-111.5 38.5t-112 -38t-43 -105q0 -61 45 -99.5t110 -38.5t109.5 38.5t44.5 99.5z" />
<glyph unicode="9" horiz-adv-x="542" d="M494 248q1 -138 -69 -262q-67 -117 -190 -205l-44 44q171 144 215 285q-61 -55 -135 -55q-94 0 -156 63.5t-62 155.5q0 90 62 153.5t154 63.5q104 0 166 -73q58 -67 59 -170zM422 274q0 62 -45.5 107t-108.5 45q-62 0 -104.5 -45t-42.5 -107t42.5 -107.5t104.5 -45.5 q65 0 109.5 44.5t44.5 108.5z" />
<glyph unicode=":" horiz-adv-x="237" d="M172 333q0 -22 -16 -37.5t-38 -15.5t-37.5 15.5t-15.5 37.5t15.5 38t37.5 16t38 -16t16 -38zM172 45q0 -22 -16 -37.5t-38 -15.5t-37.5 15.5t-15.5 37.5t15.5 37.5t37.5 15.5t38 -15.5t16 -37.5z" />
<glyph unicode=";" horiz-adv-x="237" d="M172 333q0 -22 -16 -37.5t-38 -15.5t-37.5 15.5t-15.5 37.5t15.5 38t37.5 16t38 -16t16 -38zM163 -14l-77 -121h-13v179q0 17 13.5 29.5t31.5 12.5q19 0 32 -12.5t13 -29.5v-58z" />
<glyph unicode="&#x3c;" horiz-adv-x="467" d="M415 0h-88l-263 349l263 349h88l-263 -349z" />
<glyph unicode="=" horiz-adv-x="511" d="M456 320h-401v59h401v-59zM456 121h-401v60h401v-60z" />
<glyph unicode="&#x3e;" horiz-adv-x="467" d="M415 349l-263 -349h-88l263 349l-263 349h88z" />
<glyph unicode="?" horiz-adv-x="497" d="M447 520q0 -87 -86 -138q-43 -26 -59 -46q-21 -27 -24 -73l-4 -89h-49q-8 64 -8 89q0 65 28 105q18 26 59.5 52t52.5 38q23 24 23 62q0 55 -38 88q-36 30 -92 30t-94 -31q-42 -34 -42 -93h-64q0 88 61 142q57 50 139 50t138 -50q59 -53 59 -136zM301 41 q0 -20 -14.5 -34.5t-34.5 -14.5q-21 0 -35.5 14.5t-14.5 34.5q0 21 14.5 35.5t35.5 14.5q20 0 34.5 -14.5t14.5 -35.5z" />
<glyph unicode="@" horiz-adv-x="666" d="M597 374q0 -62 -19 -126l-15 -251l-67 4l6 99q-63 -111 -152 -111q-68 0 -102 54q-30 47 -30 120q0 98 58 185q64 98 158 99q56 1 94 -41q-7 66 -37 109q-37 53 -98 53q-105 0 -184 -123q-71 -112 -71 -226q0 -122 73 -178l-36 -56q-106 75 -105 234q1 143 90 272 q98 143 232 144q99 1 156 -84q49 -73 49 -177zM505 271q0 41 -15 71q-18 38 -55 38q-63 0 -110 -80q-41 -70 -41 -137q0 -40 15 -70q18 -38 55 -38q61 0 109 79q42 69 42 137z" />
<glyph unicode="A" d="M636 0h-75l-80 207h-306l-81 -207h-74l270 698h76zM456 274l-128 330l-128 -330h256z" />
<glyph unicode="B" horiz-adv-x="639" d="M576 195q0 -195 -234 -195h-257v698h239q224 0 224 -188q0 -101 -69 -147q48 -18 74 -68q23 -44 23 -100zM479 510q0 119 -155 119h-170v-238h182q72 0 104 23q39 27 39 96zM507 195q0 140 -165 140h-188v-266h188q78 0 116 23q49 30 49 103z" />
<glyph unicode="C" horiz-adv-x="607" d="M552 589l-53 -44q-39 48 -72 68q-40 25 -95 25q-208 0 -208 -289t208 -289q55 0 95 25q33 20 72 68l53 -44q-49 -60 -95 -87q-54 -31 -125 -31q-145 0 -217 112q-62 94 -62 246q0 153 62 247q72 111 217 111q71 0 125 -31q45 -27 95 -87z" />
<glyph unicode="D" horiz-adv-x="649" d="M586 349q0 -196 -46 -263q-59 -86 -246 -86h-209v698h209q182 0 243 -88q49 -70 49 -261zM514 349q0 162 -28 210q-42 70 -192 70h-140v-560h140q106 0 155 31q44 28 57 94q8 42 8 155z" />
<glyph unicode="E" horiz-adv-x="589" d="M529 0h-444v698h444v-69h-375v-231h328v-67h-328v-262h375v-69z" />
<glyph unicode="F" horiz-adv-x="569" d="M519 629h-365v-233h328v-67h-328v-329h-69v698h434v-69z" />
<glyph unicode="G" horiz-adv-x="645" d="M569 0h-69v81q-51 -90 -172 -90q-144 0 -215 112q-60 93 -60 246q0 154 61 247q72 111 219 111q71 0 124 -31q44 -26 96 -87l-53 -44q-42 49 -73 68q-39 25 -94 25q-211 0 -211 -289q0 -121 41 -195q52 -94 165 -94q172 0 172 244h-176v65h245v-369z" />
<glyph unicode="H" horiz-adv-x="674" d="M589 0h-70v329h-365v-329h-69v698h69v-303h365v303h70v-698z" />
<glyph unicode="I" horiz-adv-x="251" d="M161 0h-71v698h71v-698z" />
<glyph unicode="J" horiz-adv-x="534" d="M459 214q0 -221 -218 -221q-174 0 -216 157l67 17q14 -52 55 -80.5t93 -28.5q149 0 149 156v484h70v-484z" />
<glyph unicode="K" horiz-adv-x="578" d="M553 0h-87l-312 346v-346h-69v698h69v-343l290 343h81l-290 -346z" />
<glyph unicode="L" horiz-adv-x="513" d="M488 0h-403v698h69v-631h334v-67z" />
<glyph unicode="M" horiz-adv-x="747" d="M662 0h-69v516l-187 -516h-65l-186 516v-516h-70v698h70l219 -612l218 612h70v-698z" />
<glyph unicode="N" horiz-adv-x="650" d="M565 0h-69l-342 574v-574h-69v698h69l342 -574v574h69v-698z" />
<glyph unicode="O" horiz-adv-x="666" d="M611 349q0 -153 -60 -246q-72 -112 -218 -112t-218 112q-60 93 -60 246t60 246q72 112 218 112t218 -112q60 -93 60 -246zM542 349q0 289 -209 289q-208 0 -208 -289t208 -289q209 0 209 289z" />
<glyph unicode="P" horiz-adv-x="614" d="M574 503q0 -195 -232 -195h-188v-308h-69v698h257q232 0 232 -195zM505 503q0 73 -48 103q-37 23 -115 23h-188v-256h188q163 0 163 130z" />
<glyph unicode="Q" horiz-adv-x="679" d="M629 0h-90l-36 43q-68 -52 -160 -52q-147 0 -219 110q-61 93 -61 248q0 156 60 248q72 110 220 110q145 0 218 -111q60 -94 60 -247q0 -170 -68 -258zM552 349q0 289 -209 289q-210 0 -210 -289t210 -289q67 0 115 35q-53 56 -122 56v69q97 0 170 -75q46 68 46 204z" />
<glyph unicode="R" horiz-adv-x="611" d="M571 0h-81l-151 259q-32 55 -84 55h-101v-314h-69v698h239q102 0 161 -44q66 -49 66 -148q0 -75 -47 -128q-48 -56 -126 -63q17 -15 31 -40zM481 506q0 123 -157 123h-170v-253h173q154 0 154 130z" />
<glyph unicode="S" horiz-adv-x="627" d="M572 199q0 -96 -77 -155q-70 -53 -169 -53q-104 0 -175 45q-79 50 -97 147l68 17q27 -143 203 -143q71 0 121 35q56 39 56 107q0 85 -109 120q-101 27 -203 54q-109 44 -109 153q0 87 71 136q61 43 153 43q90 0 148 -32q62 -35 98 -113l-62 -29q-28 60 -74 84 q-40 21 -110 21q-62 0 -103 -23q-52 -29 -52 -87q0 -73 110 -105q101 -29 202 -57q110 -50 110 -165z" />
<glyph unicode="T" horiz-adv-x="564" d="M534 630h-217v-630h-70v630h-217v68h504v-68z" />
<glyph unicode="U" horiz-adv-x="664" d="M584 292q0 -301 -252 -301t-252 301v406h69v-406q0 -111 34 -164q43 -68 149 -68t149 68q34 54 34 164v406h69v-406z" />
<glyph unicode="V" horiz-adv-x="599" d="M569 698l-238 -698h-63l-238 698h73l197 -578l196 578h73z" />
<glyph unicode="W" horiz-adv-x="790" d="M755 698l-166 -698h-67l-127 546l-127 -546h-67l-166 698h72l127 -545l127 545h67l128 -545l127 545h72z" />
<glyph unicode="X" horiz-adv-x="613" d="M578 0h-82l-189 298l-190 -298h-82l231 360l-217 338h82l176 -276l175 276h83l-217 -338z" />
<glyph unicode="Y" horiz-adv-x="597" d="M562 698l-229 -467v-231h-69v233l-229 465h77l187 -383l186 383h77z" />
<glyph unicode="Z" horiz-adv-x="601" d="M536 0h-481v58l395 572h-360v68h446v-61l-393 -568h393v-69z" />
<glyph unicode="[" horiz-adv-x="279" d="M229 -76h-159v850h159v-51h-92v-748h92v-51z" />
<glyph unicode="\" horiz-adv-x="394" d="M389 -76h-69l-315 850h70z" />
<glyph unicode="]" horiz-adv-x="279" d="M209 -76h-159v51h92v748h-92v51h159v-850z" />
<glyph unicode="^" horiz-adv-x="531" d="M476 408l-59 -33l-152 249l-152 -249l-58 33l177 290h67z" />
<glyph unicode="_" horiz-adv-x="529" d="M514 -59h-499v59h499v-59z" />
<glyph unicode="`" horiz-adv-x="311" d="M236 545h-66l-95 146h76z" />
<glyph unicode="a" horiz-adv-x="488" d="M433 10l-64 -20l-12 40q-60 -40 -140 -40q-65 0 -112 40q-50 43 -50 106q0 67 49 108q45 38 113 38h84q33 0 51 17v51q0 38 -34 58q-28 17 -68 17q-93 0 -116 -75l-61 23q36 118 179 118q67 0 114 -36q52 -40 52 -105v-294zM352 103v128q-18 -11 -45 -11h-91 q-37 0 -65.5 -23.5t-28.5 -60.5q0 -36 29 -58.5t66 -22.5q81 0 135 48z" />
<glyph unicode="b" horiz-adv-x="513" d="M458 240q0 -249 -195 -249q-78 0 -121 44v-35h-67v698h67v-257q53 49 121 49q195 0 195 -250zM392 240q0 84 -22 126q-31 58 -107 58q-51 0 -86 -29.5t-35 -80.5v-148q0 -50 35 -79.5t86 -29.5q76 0 106 57q23 43 23 126z" />
<glyph unicode="c" horiz-adv-x="496" d="M439 73q-41 -44 -74 -61q-38 -20 -93 -20q-106 0 -164 73q-53 67 -53 175q0 109 53 176q58 73 164 73q55 0 93 -20q33 -17 74 -62l-47 -44q-30 34 -53 47q-28 16 -67 16q-147 0 -147 -186t147 -186q39 0 67 17q23 13 53 46z" />
<glyph unicode="d" horiz-adv-x="508" d="M453 10l-64 -20l-13 43q-51 -42 -125 -42q-196 0 -196 249q0 252 196 252q42 0 66 -8t55 -34v248h67v-641zM372 320q0 45 -36 75.5t-85 30.5q-77 0 -107 -59q-22 -43 -22 -127q0 -83 22 -126q30 -57 107 -57q52 0 86.5 28.5t34.5 82.5v152z" />
<glyph unicode="e" horiz-adv-x="504" d="M450 262l-1 -43h-327q4 -163 149 -163q81 0 125 56l45 -45q-59 -76 -170 -76q-216 0 -216 248q0 111 47 177q55 76 160 76q95 0 144 -70q44 -61 44 -160zM383 284q-7 143 -121 143q-126 0 -138 -143h259z" />
<glyph unicode="f" horiz-adv-x="326" d="M291 698v-66q-114 0 -114 -117v-31h99v-66h-99v-418h-67v418h-45v66h45v30q0 184 181 184z" />
<glyph unicode="g" horiz-adv-x="512" d="M466 -8q0 -81 -73 -133q-65 -47 -149 -47q-78 0 -129 28q-64 35 -64 106q0 26 9 54l59 -21q-6 -15 -6 -30q0 -77 131 -77q55 0 103 31q56 35 56 87q0 24 -20 39t-45 15q-28 0 -80 -13t-80 -13q-92 0 -92 74q0 46 55 89q-72 41 -72 141q0 81 48 125.5t129 44.5 q76 0 123 -39q28 8 26 48h65q1 -75 -52 -99q14 -35 14 -80q0 -168 -176 -168q-22 0 -53 6q-46 -29 -46 -65q0 -22 28 -22t81.5 14.5t81.5 14.5q52 0 88 -28q40 -31 40 -82zM355 322q0 106 -109 106q-110 0 -110 -106q0 -110 111 -110q108 0 108 110z" />
<glyph unicode="h" horiz-adv-x="523" d="M458 0h-66v281q0 74 -27 107q-30 37 -102 37q-53 0 -87 -36.5t-34 -89.5v-299h-67v698h67v-260q45 53 121 53q195 0 195 -205v-286z" />
<glyph unicode="i" horiz-adv-x="252" d="M172 662q0 -19 -13.5 -32.5t-32.5 -13.5t-32.5 13.5t-13.5 32.5t13.5 32.5t32.5 13.5t32.5 -13.5t13.5 -32.5zM160 0h-68v484h68v-484z" />
<glyph unicode="j" horiz-adv-x="260" d="M185 662q0 -19 -13.5 -32.5t-32.5 -13.5t-32.5 13.5t-13.5 32.5t13.5 32.5t32.5 13.5t32.5 -13.5t13.5 -32.5zM169 -16q0 -204 -179 -204v67q66 0 91 37q21 31 21 100v500h67v-500z" />
<glyph unicode="k" horiz-adv-x="482" d="M456 0h-91l-223 255v-255h-67v698h67v-435l194 222h87l-197 -223z" />
<glyph unicode="l" horiz-adv-x="241" d="M194 0q-111 0 -111 114v584h68v-580q0 -28 8 -40t35 -12v-66z" />
<glyph unicode="m" horiz-adv-x="787" d="M722 0h-67v298q0 56 -28 91q-31 39 -85 39q-52 0 -82 -41q-28 -37 -28 -89v-298h-66v298q0 57 -29 92q-32 38 -88 38q-45 0 -76 -37.5t-31 -88.5v-302h-67v484h67v-39q41 47 108 47q101 0 148 -77q50 77 144 77q83 0 131.5 -55t48.5 -139v-298z" />
<glyph unicode="n" horiz-adv-x="523" d="M458 0h-66v281q0 74 -27 108q-30 37 -102 37q-53 0 -87 -37t-34 -90v-299h-67v484h67v-46q46 54 121 54q195 0 195 -206v-286z" />
<glyph unicode="o" horiz-adv-x="519" d="M464 242q0 -249 -204 -249q-205 0 -205 248q0 251 205 251q204 0 204 -250zM397 241q0 87 -25 130q-32 55 -113 55q-80 0 -112 -55q-25 -43 -25 -130q0 -86 25 -128q32 -55 112 -55q81 0 113 55q25 42 25 128z" />
<glyph unicode="p" horiz-adv-x="513" d="M458 239q0 -251 -195 -251q-85 0 -121 40v-248h-67v704h67v-36q50 45 121 45q195 0 195 -254zM392 239q0 85 -22 128q-31 59 -107 59q-51 0 -86 -31t-35 -81v-148q0 -50 35 -80.5t86 -30.5q76 0 107 58q22 42 22 126z" />
<glyph unicode="q" horiz-adv-x="518" d="M453 473l-14 -48v-645h-67v248q-51 -40 -121 -40q-197 0 -197 252q0 254 197 254q71 0 125 -45l13 43zM372 166v149q0 50 -35.5 81t-85.5 31q-77 0 -107 -59q-22 -43 -22 -128t22 -127q30 -58 107 -58q51 0 86 30.5t35 80.5z" />
<glyph unicode="r" horiz-adv-x="399" d="M353 466l-26 -56q-31 18 -66 18q-49 0 -83 -27q-37 -28 -37 -76v-325h-66v484h66v-36q40 45 120 45q62 0 92 -27z" />
<glyph unicode="s" horiz-adv-x="483" d="M434 138q0 -68 -57 -110q-52 -36 -124 -36q-162 0 -198 137l66 21q24 -94 132 -94q44 0 76 19q38 23 38 63q0 51 -77 74q-71 21 -142 41q-77 34 -77 108q0 63 54 99q47 32 114 32q129 0 181 -106l-60 -29q-33 70 -121 70q-38 0 -66 -14q-35 -18 -35 -52q0 -39 77 -61 q127 -37 142 -44q77 -39 77 -118z" />
<glyph unicode="t" horiz-adv-x="301" d="M246 419h-75v-301q0 -36 14 -45q10 -7 49 -7v-66h-27q-101 0 -101 118v301h-66v66h66v141h65v-141h75v-66z" />
<glyph unicode="u" horiz-adv-x="528" d="M453 0h-66v36q-49 -44 -121 -44q-102 0 -149 51.5t-47 163.5v277h67v-277q0 -77 26 -111q30 -39 103 -39q49 0 85 29.5t36 78.5v319h66v-484z" />
<glyph unicode="v" horiz-adv-x="487" d="M457 484l-182 -484h-64l-181 484h71l142 -380l143 380h71z" />
<glyph unicode="w" horiz-adv-x="768" d="M738 484l-155 -484h-65l-135 375l-135 -375h-65l-153 484h71l117 -371l133 371h64l134 -371l119 371h70z" />
<glyph unicode="x" horiz-adv-x="483" d="M453 0h-81l-130 191l-131 -191h-81l171 249l-161 235h81l121 -174l121 174h80l-161 -235z" />
<glyph unicode="y" horiz-adv-x="487" d="M457 484l-224 -603q-38 -102 -136 -101h-29l1 67l20 -1q34 0 51.5 13t29.5 46l36 95l-176 484h71l141 -389l143 389h72z" />
<glyph unicode="z" horiz-adv-x="476" d="M421 0h-371v63l282 356h-259v65h348v-60l-284 -358h284v-66z" />
<glyph unicode="{" horiz-adv-x="334" d="M294 -71q-175 0 -175 177q0 20 7.5 58t7.5 58q0 99 -94 98v59q94 -1 94 98q0 18 -7.5 54.5t-7.5 54.5q0 94 40.5 138.5t134.5 44.5v-61q-64 0 -88 -35q-19 -28 -19 -95q0 -17 8 -50t8 -50q0 -94 -61 -129q61 -33 61 -128q0 -18 -8 -52t-8 -52q0 -62 21 -92q26 -35 86 -35 v-61z" />
<glyph unicode="|" horiz-adv-x="261" d="M166 -76h-71v850h71v-850z" />
<glyph unicode="}" horiz-adv-x="334" d="M294 320q-94 1 -94 -98q0 -20 7.5 -58t7.5 -58q0 -177 -175 -177v61q60 0 85 35q22 30 22 92q0 18 -8.5 52t-8.5 52q0 95 62 128q-61 35 -61 129q0 17 7.5 50t7.5 50q0 67 -19 95q-23 35 -87 35v61q94 0 134 -44.5t40 -138.5q0 -18 -7 -54.5t-7 -54.5q0 -99 94 -98v-59z " />
<glyph unicode="~" horiz-adv-x="465" d="M429 295q-63 -66 -117 -66q-36 0 -86 32t-77 32q-32 0 -64 -44l-49 44q56 67 115 67q37 0 87 -32t76 -32q30 0 67 45z" />
<glyph unicode="&#xa1;" horiz-adv-x="280" d="M180 445q0 -21 -14.5 -35.5t-35.5 -14.5t-35.5 14.5t-14.5 35.5q0 20 14.5 34.5t35.5 14.5t35.5 -14.5t14.5 -34.5zM164 -212h-69v337l5 195h59l5 -195v-337z" />
<glyph unicode="&#xa2;" horiz-adv-x="470" d="M409 368l-44 -40q-42 46 -77 54l-70 -328q18 -5 38 -5q58 0 109 57l44 -40q-39 -42 -72.5 -58t-80.5 -16q-26 0 -50 6l-16 -75l-50 11l18 83q-97 55 -97 200q0 101 50 161.5t137 63.5l15 70l51 -11l-14 -62q54 -11 109 -71zM236 384q-112 -15 -112 -167q0 -96 47 -138z " />
<glyph unicode="&#xa3;" horiz-adv-x="483" d="M438 550l-50 -43q-30 35 -52 47q-30 18 -75 18q-105 0 -105 -123q0 -33 13 -98h116l-14 -65h-89q9 -51 9 -89q0 -62 -24 -130h258v-67h-336v50q37 82 37 147q0 34 -11 89h-69l13 65h43q-12 61 -12 96q-1 83 44 136.5t127 53.5q63 0 108 -26q31 -18 69 -61z" />
<glyph unicode="&#xa4;" horiz-adv-x="585" d="M539 52q-66 -60 -168 -60q-98 0 -164 60.5t-84 158.5h-69l13 56h49q-1 30 -1 67h-61l13 56h51q11 111 76 178q69 71 177 71q99 0 165 -60l-33 -56q-55 54 -132 54q-82 0 -132 -53q-46 -49 -56 -134h232l-13 -56h-223v-25q0 -19 1 -42h235l-13 -56h-214q16 -71 64 -114 t119 -43q78 0 133 54z" />
<glyph unicode="&#xa5;" horiz-adv-x="545" d="M514 635l-139 -284h77l-14 -64h-95l-26 -54h135l-14 -65h-132v-166h-67v166h-146l14 65h122l-26 54h-110l14 64h64l-140 284h75l167 -338l166 338h75z" />
<glyph unicode="&#xa6;" horiz-adv-x="311" d="M181 389h-61v386h61v-386zM181 -76h-61v386h61v-386z" />
<glyph unicode="&#xa7;" horiz-adv-x="512" d="M447 223q0 -89 -53 -141q33 -38 33 -99q0 -80 -48.5 -131.5t-124.5 -51.5q-106 0 -185 147l60 32q60 -111 125 -111q47 0 76.5 31.5t29.5 83.5q0 41 -23.5 62t-88.5 37q-183 44 -183 189q0 88 54 140q-34 39 -34 100q0 80 48.5 131t125.5 51q105 0 184 -146l-60 -32 q-59 110 -124 110q-48 0 -77 -31t-29 -83q0 -41 23 -62t88 -37q183 -44 183 -189zM380 223q0 92 -132 123q-44 11 -73 24q-42 -31 -42 -99q0 -92 131 -123q44 -11 73 -25q43 32 43 100z" />
<glyph unicode="&#xa8;" horiz-adv-x="439" d="M374 593q0 -21 -15 -36t-36 -15t-36 15t-15 36t15 36t36 15t36 -15t15 -36zM167 593q0 -21 -15 -36t-36 -15t-36 15t-15 36t15 36t36 15t36 -15t15 -36z" />
<glyph unicode="&#xa9;" horiz-adv-x="792" d="M714 381q0 -131 -93 -224t-225 -93q-131 0 -224.5 93t-93.5 224q0 132 93.5 225t224.5 93q132 0 225 -93t93 -225zM653 381q0 107 -75 182.5t-182 75.5q-106 0 -181.5 -75.5t-75.5 -182.5q0 -106 75.5 -181.5t181.5 -75.5q107 0 182 75.5t75 181.5zM521 498l-50 -41 q-35 42 -68 42q-79 0 -79 -117q0 -118 79 -118q33 0 68 43l50 -42q-56 -65 -118 -65q-75 0 -112 56q-32 48 -32 126q0 77 32 125q37 57 112 57q63 0 118 -66z" />
<glyph unicode="&#xaa;" horiz-adv-x="401" d="M356 322l-61 -18l-8 25q-47 -30 -106 -30q-56 0 -96 36t-40 87t40 87t96 36h65q20 0 35 13v32q0 22 -19.5 37.5t-50.5 15.5q-75 0 -93 -61l-61 18q16 53 63 82q41 25 91 25q56 0 95 -34t39 -83v-231zM273 194h-147v63h147v-63zM281 405v81q-16 -5 -35 -5h-65 q-30 0 -51 -17.5t-21 -41.5t21 -41.5t51 -17.5q57 0 100 42z" />
<glyph unicode="&#xab;" horiz-adv-x="481" d="M426 398l-147 -140l147 -140v-92l-214 205v54l214 204v-91zM259 398l-147 -140l147 -140v-92l-214 205v54l213 204z" />
<glyph unicode="&#xac;" horiz-adv-x="521" d="M466 93h-63v135h-358v63h421v-198z" />
<glyph unicode="&#xae;" horiz-adv-x="792" d="M715 380q0 -132 -93.5 -225t-225.5 -93t-225.5 93t-93.5 225t93.5 225.5t225.5 93.5t225.5 -93.5t93.5 -225.5zM659 380q0 109 -77 186t-186 77q-108 0 -185 -77t-77 -186q0 -108 77 -185t185 -77q109 0 186 77t77 185zM548 205h-70l-68 111q-20 33 -36 33h-33v-144h-61 v351h127q120 0 120 -103q0 -78 -69 -98l4 -7zM467 453q0 43 -60 43h-66v-86h66q60 0 60 43z" />
<glyph unicode="&#xaf;" horiz-adv-x="484" d="M397 584h-309v63h309v-63z" />
<glyph unicode="&#xb0;" horiz-adv-x="286" d="M241 661q0 -41 -29 -69.5t-69 -28.5q-41 0 -69.5 28.5t-28.5 69.5q0 40 28.5 69t69.5 29q40 0 69 -29t29 -69zM187 661q0 18 -13 31t-31 13t-31 -13t-13 -31q0 -19 13 -31.5t31 -12.5t31 12.5t13 31.5z" />
<glyph unicode="&#xb1;" horiz-adv-x="521" d="M466 274h-171v-168h-69v168h-171v68h171v168h69v-168h171v-68zM466 0h-411v67h411v-67z" />
<glyph unicode="&#xb2;" horiz-adv-x="333" d="M293 274h-253v46q34 90 102 155q92 86 92 120q0 52 -62 52q-43 0 -74 -58l-52 27q48 89 126 89q48 0 82 -27q39 -31 39 -83q0 -35 -23 -69t-87 -94q-43 -40 -73 -100h183v-58z" />
<glyph unicode="&#xb3;" horiz-adv-x="330" d="M290 399q0 -52 -37.5 -89.5t-89.5 -37.5q-41 0 -74.5 24t-46.5 63l-5 15l57 18l4 -15q16 -47 65 -47q28 0 48 20.5t20 48.5q0 29 -20 49.5t-48 20.5h-31v58h27q27 0 45.5 17.5t18.5 42.5t-18.5 42.5t-45.5 17.5q-46 0 -61 -41l-5 -15l-56 19l5 15q13 36 45 58.5t72 22.5 q51 0 87 -35t36 -84q0 -53 -41 -88q49 -38 49 -100z" />
<glyph unicode="&#xb4;" horiz-adv-x="291" d="M226 691l-95 -146h-66l85 146h76z" />
<glyph unicode="&#xb5;" horiz-adv-x="513" d="M448 0h-66v28q-51 -39 -121 -39q-78 0 -129 40v-225h-67v674h67v-270q0 -73 22 -107q31 -46 107 -46q74 0 105 54q10 18 16 42v327h66v-478z" />
<glyph unicode="&#xb6;" horiz-adv-x="567" d="M482 -151h-69v767h-100v-767h-69v452q-79 4 -134 61.5t-55 136.5q0 83 58 141t141 58h228v-849z" />
<glyph unicode="&#xb7;" horiz-adv-x="237" d="M172 265q0 -22 -16 -38t-38 -16t-37.5 16t-15.5 38t15.5 37.5t37.5 15.5t38 -15.5t16 -37.5z" />
<glyph unicode="&#xb8;" horiz-adv-x="481" d="M309 -73l-69 -123h-84l87 128l-33 72l54 21z" />
<glyph unicode="&#xb9;" horiz-adv-x="256" d="M186 274h-58v348l-67 -41l-29 50l121 73h33v-430z" />
<glyph unicode="&#xba;" horiz-adv-x="426" d="M381 503q0 -85 -28 -131q-43 -72 -140 -72t-140 72q-28 46 -28 130v1q0 86 28 132q43 72 140 72t140 -72q28 -46 28 -132zM287 194h-147v63h147v-63zM317 503q0 68 -18 99q-25 41 -86 41t-85 -41q-19 -31 -19 -99t19 -99q25 -41 85 -41q61 0 86 41q18 31 18 99z" />
<glyph unicode="&#xbb;" horiz-adv-x="481" d="M436 231l-214 -205v92l146 140l-146 140v91l214 -204v-54zM269 231l-214 -205v92l146 140l-146 140v91l214 -204v-54z" />
<glyph unicode="&#xbc;" horiz-adv-x="740" d="M691 105h-27v-105h-60v105h-171v50l174 276h69l-168 -267h96v131l60 -12v-119h27v-59zM538 698l-308 -698h-61l309 698h60zM186 274h-58v348l-67 -41l-29 50l121 73h33v-430z" />
<glyph unicode="&#xbd;" horiz-adv-x="778" d="M735 0h-253v46q33 91 102 155q91 86 91 121q0 51 -61 51q-43 0 -74 -58l-52 27q47 90 126 90q48 0 82 -28q38 -31 38 -82q0 -36 -23 -69.5t-86 -93.5q-43 -41 -74 -100h184v-59zM538 698l-308 -698h-61l309 698h60zM186 274h-58v348l-67 -41l-29 50l121 73h33v-430z" />
<glyph unicode="&#xbe;" horiz-adv-x="821" d="M791 105h-28v-105h-59v105h-172v50l174 276h70l-168 -267h96v131l59 -12v-119h28v-59zM619 698l-309 -698h-61l309 698h61zM290 399q0 -52 -37.5 -89.5t-89.5 -37.5q-41 0 -74.5 24t-46.5 63l-5 15l57 18l4 -15q16 -47 65 -47q28 0 48 20.5t20 48.5q0 29 -20 49.5 t-48 20.5h-31v58h27q27 0 45.5 17.5t18.5 42.5t-18.5 42.5t-45.5 17.5q-46 0 -61 -41l-5 -15l-56 19l5 15q13 36 45 58.5t72 22.5q51 0 87 -35t36 -84q0 -53 -41 -88q49 -38 49 -100z" />
<glyph unicode="&#xbf;" horiz-adv-x="497" d="M305 445q0 -21 -14.5 -35.5t-34.5 -14.5q-21 0 -35.5 14.5t-14.5 35.5q0 20 14.5 34.5t35.5 14.5q20 0 34.5 -14.5t14.5 -34.5zM457 -28q0 -88 -61 -142q-57 -50 -139 -50t-138 50q-59 53 -59 136q0 87 86 138q43 26 59 46q22 27 24 73l4 89h49q8 -64 8 -89 q0 -65 -28 -105q-18 -26 -59.5 -52t-52.5 -38q-23 -24 -23 -62q0 -55 37 -86.5t93 -31.5t94 31q42 34 42 93h64z" />
<glyph unicode="&#xc0;" d="M372 775h-67l-95 146h76zM636 0h-75l-80 207h-306l-81 -207h-74l270 698h76zM456 274l-128 330l-128 -330h256z" />
<glyph unicode="&#xc1;" d="M437 921l-95 -146h-67l86 146h76zM636 0h-75l-80 207h-306l-81 -207h-74l270 698h76zM456 274l-128 330l-128 -330h256z" />
<glyph unicode="&#xc2;" d="M480 775h-85l-67 104l-67 -104h-86l105 146h95zM636 0h-75l-80 207h-306l-81 -207h-74l270 698h76zM456 274l-128 330l-128 -330h256z" />
<glyph unicode="&#xc3;" d="M495 816l-9 -11q-36 -46 -84 -46q-29 0 -78 21.5t-66 21.5q-14 0 -23 -8q-5 -4 -22 -26l-49 40q45 58 94 58q34 0 85 -26q37 -18 57 -18q15 0 24 8q5 4 22 26zM636 0h-75l-80 207h-306l-81 -207h-74l270 698h76zM456 274l-128 330l-128 -330h256z" />
<glyph unicode="&#xc4;" d="M481 826q0 -21 -15 -36t-36 -15t-36 15t-15 36t15 36t36 15t36 -15t15 -36zM274 826q0 -21 -15 -36t-36 -15t-36 15t-15 36t15 36t36 15t36 -15t15 -36zM636 0h-75l-80 207h-306l-81 -207h-74l270 698h76zM456 274l-128 330l-128 -330h256z" />
<glyph unicode="&#xc5;" d="M444 861q0 -48 -34 -82t-82 -34t-82.5 34t-34.5 82t34.5 82.5t82.5 34.5t82 -34.5t34 -82.5zM636 0h-75l-80 207h-306l-81 -207h-74l270 698h76zM385 861q0 24 -16.5 40.5t-40.5 16.5t-40.5 -16.5t-16.5 -40.5t16.5 -40.5t40.5 -16.5t40.5 16.5t16.5 40.5zM456 274 l-128 330l-128 -330h256z" />
<glyph unicode="&#xc6;" horiz-adv-x="919" d="M874 0h-425v207h-257l-100 -207h-77l336 698h523v-69h-355v-231h307v-69h-307v-260h355v-69zM449 274v355h-54l-171 -355h225z" />
<glyph unicode="&#xc7;" horiz-adv-x="587" d="M542 589l-53 -44q-45 54 -80.5 73.5t-86.5 19.5q-107 0 -163 -87q-45 -68 -45 -202t45 -202q56 -87 163 -87q51 0 86.5 19.5t80.5 73.5l53 -44q-87 -104 -181 -115l26 -62l-68 -128h-78l86 133l-24 55q-132 8 -203 118q-55 85 -55 239t55 239q77 119 222 119 q68 0 116.5 -26t103.5 -92z" />
<glyph unicode="&#xc8;" horiz-adv-x="589" d="M353 775h-66l-95 146h76zM529 0h-444v698h444v-69h-375v-231h328v-69h-328v-260h375v-69z" />
<glyph unicode="&#xc9;" horiz-adv-x="589" d="M407 921l-95 -146h-66l85 146h76zM529 0h-444v698h444v-69h-375v-231h328v-69h-328v-260h375v-69z" />
<glyph unicode="&#xca;" horiz-adv-x="589" d="M455 775h-85l-67 104l-67 -104h-85l105 146h95zM529 0h-444v698h444v-69h-375v-231h328v-69h-328v-260h375v-69z" />
<glyph unicode="&#xcb;" horiz-adv-x="589" d="M457 826q0 -21 -15 -36t-36 -15t-36 15t-15 36t15 36t36 15t36 -15t15 -36zM250 826q0 -21 -15 -36t-36 -15t-36 15t-15 36t15 36t36 15t36 -15t15 -36zM529 0h-444v698h444v-69h-375v-231h328v-69h-328v-260h375v-69z" />
<glyph unicode="&#xcc;" horiz-adv-x="241" d="M176 775h-66l-95 146h76zM152 0h-71v698h71v-698z" />
<glyph unicode="&#xcd;" horiz-adv-x="241" d="M226 921l-95 -146h-66l85 146h76zM155 0h-71v698h71v-698z" />
<glyph unicode="&#xce;" horiz-adv-x="324" d="M314 775h-85l-67 104l-67 -104h-85l105 146h95zM195 0h-70v698h70v-698z" />
<glyph unicode="&#xcf;" horiz-adv-x="309" d="M299 826q0 -21 -15 -36t-36 -15t-36 15t-15 36t15 36t36 15t36 -15t15 -36zM112 826q0 -21 -15 -36t-36 -15t-36 15t-15 36t15 36t36 15t36 -15t15 -36zM190 0h-71v698h71v-698z" />
<glyph unicode="&#xd0;" horiz-adv-x="659" d="M589 349q0 -98 -8 -158q-15 -114 -96 -158q-62 -33 -186 -33h-210v313h-42v69h42v316h210q124 0 186 -33q81 -44 96 -158q8 -60 8 -158zM519 349q0 94 -7 149q-11 82 -63 108q-48 23 -150 23h-140v-247h160v-69h-160v-244h140q102 0 150 24q52 25 63 107q7 55 7 149z" />
<glyph unicode="&#xd1;" horiz-adv-x="630" d="M485 820l-9 -12q-36 -46 -84 -46q-29 0 -78 21.5t-66 21.5q-14 0 -24 -8q-4 -4 -21 -26l-49 40q45 58 94 58q34 0 85 -25q37 -18 57 -18q15 0 24 8q4 3 22 25zM555 0h-69l-342 564v-564h-69v698h69l342 -564v564h69v-698z" />
<glyph unicode="&#xd2;" horiz-adv-x="666" d="M406 775h-66l-95 146h76zM611 349q0 -154 -55 -239q-77 -119 -223 -119t-223 119q-55 85 -55 239q0 155 55 239q78 119 223 119q146 0 223 -119q55 -85 55 -239zM542 349q0 134 -45 202q-56 87 -164 87t-164 -87q-44 -68 -44 -202t44 -202q56 -87 164 -87t164 87 q45 68 45 202z" />
<glyph unicode="&#xd3;" horiz-adv-x="666" d="M435 921l-95 -146h-66l85 146h76zM611 349q0 -154 -55 -239q-77 -119 -223 -119t-223 119q-55 85 -55 239q0 155 55 239q78 119 223 119q146 0 223 -119q55 -85 55 -239zM542 349q0 134 -45 202q-56 87 -164 87t-164 -87q-44 -68 -44 -202t44 -202q56 -87 164 -87t164 87 q45 68 45 202z" />
<glyph unicode="&#xd4;" horiz-adv-x="666" d="M486 775h-85l-67 104l-67 -104h-85l104 146h96zM611 349q0 -154 -55 -239q-77 -119 -223 -119t-223 119q-55 85 -55 239q0 155 55 239q78 119 223 119q146 0 223 -119q55 -85 55 -239zM542 349q0 134 -45 202q-56 87 -164 87t-164 -87q-44 -68 -44 -202t44 -202 q56 -87 164 -87t164 87q45 68 45 202z" />
<glyph unicode="&#xd5;" horiz-adv-x="666" d="M493 816l-8 -11q-36 -46 -85 -46q-29 0 -77.5 21.5t-66.5 21.5q-14 0 -23 -8q-4 -4 -21 -26l-49 40q45 58 94 58q33 0 85 -26q37 -18 57 -18q15 0 24 8q4 4 21 26zM611 349q0 -154 -55 -239q-77 -119 -223 -119t-223 119q-55 85 -55 239q0 155 55 239q78 119 223 119 q146 0 223 -119q55 -85 55 -239zM542 349q0 134 -45 202q-56 87 -164 87t-164 -87q-44 -68 -44 -202t44 -202q56 -87 164 -87t164 87q45 68 45 202z" />
<glyph unicode="&#xd6;" horiz-adv-x="666" d="M484 826q0 -21 -15 -36t-36 -15t-36 15t-15 36t15 36t36 15t36 -15t15 -36zM277 826q0 -21 -15 -36t-36 -15t-36 15t-15 36t15 36t36 15t36 -15t15 -36zM611 349q0 -154 -55 -239q-77 -119 -223 -119t-223 119q-55 85 -55 239q0 155 55 239q78 119 223 119 q146 0 223 -119q55 -85 55 -239zM542 349q0 134 -45 202q-56 87 -164 87t-164 -87q-44 -68 -44 -202t44 -202q56 -87 164 -87t164 87q45 68 45 202z" />
<glyph unicode="&#xd7;" horiz-adv-x="435" d="M389 152l-50 -50l-122 122l-121 -122l-50 50l121 122l-121 121l50 50l121 -121l122 121l50 -50l-122 -121z" />
<glyph unicode="&#xd8;" horiz-adv-x="646" d="M611 349q0 -153 -60 -246q-72 -112 -218 -112q-87 0 -149 41l-18 -32h-76l43 78q-78 95 -78 271q0 153 60 246q72 112 218 112q75 0 131 -30l12 21h76l-34 -61q93 -94 93 -288zM542 349q0 150 -59 224l-265 -480q46 -33 115 -33q209 0 209 289zM430 616q-41 22 -97 22 q-208 0 -208 -289q0 -131 45 -204z" />
<glyph unicode="&#xd9;" horiz-adv-x="664" d="M411 775h-66l-95 146h76zM584 302q0 -133 -42 -203q-64 -107 -210 -108q-146 0 -210 108q-42 70 -42 203v396h69v-396q0 -114 33 -168q44 -74 150 -74t150 74q33 54 33 168v396h69v-396z" />
<glyph unicode="&#xda;" horiz-adv-x="664" d="M429 921l-95 -146h-66l85 146h76zM584 302q0 -133 -42 -203q-64 -107 -210 -108q-146 0 -210 108q-42 70 -42 203v396h69v-396q0 -114 33 -168q44 -74 150 -74t150 74q33 54 33 168v396h69v-396z" />
<glyph unicode="&#xdb;" horiz-adv-x="664" d="M485 775h-85l-67 104l-67 -104h-85l104 146h96zM584 302q0 -133 -42 -203q-64 -107 -210 -108q-146 0 -210 108q-42 70 -42 203v396h69v-396q0 -114 33 -168q44 -74 150 -74t150 74q33 54 33 168v396h69v-396z" />
<glyph unicode="&#xdc;" horiz-adv-x="664" d="M489 826q0 -21 -15 -36t-36 -15t-36 15t-15 36t15 36t36 15t36 -15t15 -36zM282 826q0 -21 -15 -36t-36 -15t-36 15t-15 36t15 36t36 15t36 -15t15 -36zM584 302q0 -133 -42 -203q-64 -107 -210 -108q-146 0 -210 108q-42 70 -42 203v396h69v-396q0 -114 33 -168 q44 -74 150 -74t150 74q33 54 33 168v396h69v-396z" />
<glyph unicode="&#xdd;" horiz-adv-x="597" d="M388 921l-95 -146h-66l85 146h76zM562 698l-229 -467v-231h-69v233l-229 465h77l187 -379l186 379h77z" />
<glyph unicode="&#xde;" horiz-adv-x="624" d="M579 360q0 -112 -81 -162q-53 -33 -151 -33h-188v-165h-69v698h69v-143h188q98 0 151 -32q81 -51 81 -163zM510 360q0 74 -49 105q-36 22 -114 22h-188v-253h188q78 0 114 22q49 30 49 104z" />
<glyph unicode="&#xdf;" horiz-adv-x="572" d="M492 242q0 -104 -34 -159q-51 -82 -174 -85l-2 66q87 3 119 54q24 39 24 123q0 85 -24 124q-31 50 -116 53h-4v67q66 14 66 73q0 31 -21.5 52.5t-52.5 21.5q-61 0 -86 -40q-20 -32 -20 -97v-495h-67v495q0 203 173 203q59 0 100 -41t41 -99q0 -52 -35 -92 q112 -48 113 -224z" />
<glyph unicode="&#xe0;" horiz-adv-x="488" d="M311 545h-66l-95 146h76zM433 10l-64 -20l-12 40q-60 -40 -140 -40q-65 0 -112 40q-50 43 -50 106q0 67 49 108q45 38 113 38h84q33 0 51 17v51q0 38 -34 58q-28 17 -68 17q-93 0 -116 -75l-61 23q36 118 179 118q67 0 114 -36q52 -40 52 -105v-294q7 -21 15 -46z M352 103v128q-18 -11 -45 -11h-91q-37 0 -65.5 -23.5t-28.5 -60.5q0 -36 29 -58.5t66 -22.5q81 0 135 48z" />
<glyph unicode="&#xe1;" horiz-adv-x="488" d="M339 691l-95 -146h-66l85 146h76zM433 10l-64 -20l-12 40q-60 -40 -140 -40q-65 0 -112 40q-50 43 -50 106q0 67 49 108q45 38 113 38h84q33 0 51 17v51q0 38 -34 58q-28 17 -68 17q-93 0 -116 -75l-61 23q36 118 179 118q67 0 114 -36q52 -40 52 -105v-294q7 -21 15 -46 zM352 103v128q-18 -11 -45 -11h-91q-37 0 -65.5 -23.5t-28.5 -60.5q0 -36 29 -58.5t66 -22.5q81 0 135 48z" />
<glyph unicode="&#xe2;" horiz-adv-x="488" d="M392 533h-75l-67 104l-67 -104h-75l95 146h95zM433 10l-64 -20l-12 40q-60 -40 -140 -40q-65 0 -112 40q-50 43 -50 106q0 67 49 108q45 38 113 38h84q33 0 51 17v51q0 38 -34 58q-28 17 -68 17q-93 0 -116 -75l-61 23q36 118 179 118q67 0 114 -36q52 -40 52 -105v-294 q7 -21 15 -46zM352 103v128q-18 -11 -45 -11h-91q-37 0 -65.5 -23.5t-28.5 -60.5q0 -36 29 -58.5t66 -22.5q81 0 135 48z" />
<glyph unicode="&#xe3;" horiz-adv-x="488" d="M420 596q-44 -58 -93 -58q-29 0 -77.5 21.5t-66.5 21.5t-44 -34l-49 40q45 58 94 58q29 0 76 -21.5t66 -21.5q15 0 27 10q2 2 18 24zM433 10l-64 -20l-12 40q-60 -40 -140 -40q-65 0 -112 40q-50 43 -50 106q0 67 49 108q45 38 113 38h84q33 0 51 17v51q0 38 -34 58 q-28 17 -68 17q-93 0 -116 -75l-61 23q36 118 179 118q67 0 114 -36q52 -40 52 -105v-294q7 -21 15 -46zM352 103v128q-18 -11 -45 -11h-91q-37 0 -65.5 -23.5t-28.5 -60.5q0 -36 29 -58.5t66 -22.5q81 0 135 48z" />
<glyph unicode="&#xe4;" horiz-adv-x="488" d="M407 593q0 -21 -14.5 -36t-35.5 -15q-22 0 -36.5 15t-14.5 36t14.5 36t36.5 15q21 0 35.5 -15t14.5 -36zM200 593q0 -21 -15 -36t-36 -15t-35.5 15t-14.5 36t14.5 36t35.5 15t36 -15t15 -36zM433 10l-64 -20l-12 40q-60 -40 -140 -40q-65 0 -112 40q-50 43 -50 106 q0 67 49 108q45 38 113 38h84q33 0 51 17v51q0 38 -34 58q-28 17 -68 17q-93 0 -116 -75l-61 23q36 118 179 118q67 0 114 -36q52 -40 52 -105v-294q7 -21 15 -46zM352 103v128q-18 -11 -45 -11h-91q-37 0 -65.5 -23.5t-28.5 -60.5q0 -36 29 -58.5t66 -22.5q81 0 135 48z " />
<glyph unicode="&#xe5;" horiz-adv-x="488" d="M373 649q0 -48 -34 -82.5t-82 -34.5q-49 0 -83 34.5t-34 82.5t34 82t83 34q48 0 82 -34t34 -82zM433 10l-64 -20l-12 40q-60 -40 -140 -40q-65 0 -112 40q-50 43 -50 106q0 67 49 108q45 38 113 38h84q33 0 51 17v51q0 38 -34 58q-28 17 -68 17q-93 0 -116 -75l-61 23 q36 118 179 118q67 0 114 -36q52 -40 52 -105v-294q7 -21 15 -46zM314 649q0 24 -17 40.5t-40 16.5q-24 0 -41 -16.5t-17 -40.5t17 -40.5t41 -16.5q23 0 40 16.5t17 40.5zM352 103v128q-18 -11 -45 -11h-91q-37 0 -65.5 -23.5t-28.5 -60.5q0 -36 29 -58.5t66 -22.5 q81 0 135 48z" />
<glyph unicode="&#xe6;" horiz-adv-x="787" d="M742 220h-331q2 -73 26 -108q37 -56 125 -56q82 0 126 56l53 -40q-64 -81 -179 -81q-112 0 -171 70q-79 -71 -179 -71q-69 0 -118 42.5t-49 103.5t49.5 105t117.5 44h82q30 0 53 22l1 5l-3 44q-2 28 -29 48t-66 20q-42 0 -75 -19q-39 -22 -51 -63l-65 19q20 65 79 100 q50 29 112 29q96 0 142 -70q57 70 161 70t160 -85q21 -33 27 -90q3 -26 2 -95zM675 285q-3 61 -19 84q-36 55 -103 55q-80 0 -116 -55q-19 -29 -24 -84h262zM358 122q-14 42 -14 106q-23 -8 -50 -8h-82q-42 0 -71 -25.5t-29 -58.5q0 -32 29 -56t71 -24q82 0 146 66z" />
<glyph unicode="&#xe7;" horiz-adv-x="476" d="M429 73q-65 -70 -131 -79l31 -67l-69 -123h-84l87 128l-28 61q-92 9 -143 80q-47 66 -47 167q0 109 53 176q58 73 164 73q55 0 93 -20q33 -17 74 -62l-47 -44q-30 34 -53 47q-28 16 -67 16q-147 0 -147 -186t147 -186q39 0 67 17q23 13 53 46z" />
<glyph unicode="&#xe8;" horiz-adv-x="504" d="M321 545h-66l-95 146h76zM450 262l-1 -43h-327q4 -163 149 -163q81 0 125 56l45 -45q-59 -76 -170 -76q-216 0 -216 248q0 111 47 177q55 76 160 76q95 0 144 -70q44 -61 44 -160zM383 284q-7 143 -121 143q-126 0 -138 -143h259z" />
<glyph unicode="&#xe9;" horiz-adv-x="504" d="M376 691l-95 -146h-66l85 146h76zM450 262l-1 -43h-327q4 -163 149 -163q81 0 125 56l45 -45q-59 -76 -170 -76q-216 0 -216 248q0 111 47 177q55 76 160 76q95 0 144 -70q44 -61 44 -160zM383 284q-7 143 -121 143q-126 0 -138 -143h259z" />
<glyph unicode="&#xea;" horiz-adv-x="504" d="M401 533h-75l-67 104l-67 -104h-75l95 146h95zM450 262l-1 -43h-327q4 -163 149 -163q81 0 125 56l45 -45q-59 -76 -170 -76q-216 0 -216 248q0 111 47 177q55 76 160 76q95 0 144 -70q44 -61 44 -160zM383 284q-7 143 -121 143q-126 0 -138 -143h259z" />
<glyph unicode="&#xeb;" horiz-adv-x="504" d="M406 593q0 -21 -14.5 -36t-35.5 -15q-22 0 -36.5 15t-14.5 36t14.5 36t36.5 15q21 0 35.5 -15t14.5 -36zM209 593q0 -21 -15 -36t-36 -15t-35.5 15t-14.5 36t14.5 36t35.5 15t36 -15t15 -36zM450 262l-1 -43h-327q4 -163 149 -163q81 0 125 56l45 -45q-59 -76 -170 -76 q-216 0 -216 248q0 111 47 177q55 76 160 76q95 0 144 -70q44 -61 44 -160zM383 284q-7 143 -121 143q-126 0 -138 -143h259z" />
<glyph unicode="&#xec;" horiz-adv-x="232" d="M175 545h-66l-95 146h76zM150 0h-68v484h68v-484z" />
<glyph unicode="&#xed;" horiz-adv-x="232" d="M223 691l-95 -146h-66l85 146h76zM150 0h-68v484h68v-484z" />
<glyph unicode="&#xee;" horiz-adv-x="232" d="M259 533h-75l-67 104l-67 -104h-75l95 146h95zM150 0h-68v484h68v-484z" />
<glyph unicode="&#xef;" horiz-adv-x="232" d="M259 593q0 -21 -14.5 -36t-35.5 -15q-22 0 -36.5 15t-14.5 36t14.5 36t36.5 15q21 0 35.5 -15t14.5 -36zM72 593q0 -21 -15 -36t-36 -15t-35.5 15t-14.5 36t14.5 36t35.5 15t36 -15t15 -36zM150 0h-68v484h68v-484z" />
<glyph unicode="&#xf0;" horiz-adv-x="519" d="M464 241q0 -106 -34 -163q-52 -87 -170 -87t-171 87q-34 57 -34 163t34 163q53 87 171 87q35 0 66 -9l-35 79h-121v63h93l-55 126h69l55 -126h89v-63h-61l51 -109l24 -43q29 -55 29 -168zM397 241q0 88 -24 128q-33 55 -114 55q-80 0 -113 -55q-24 -40 -24 -128t24 -129 q33 -55 113 -55q81 0 114 55q24 41 24 129z" />
<glyph unicode="&#xf1;" horiz-adv-x="503" d="M425 596q-44 -58 -93 -58q-29 0 -77.5 21.5t-66.5 21.5t-44 -34l-49 40q45 58 94 58q29 0 76 -21.5t66 -21.5q15 0 27 10q2 2 18 24zM448 0h-66v281q0 74 -27 108q-30 37 -102 37q-53 0 -87 -37t-34 -90v-299h-67v484h67v-46q46 54 121 54q195 0 195 -206v-286z" />
<glyph unicode="&#xf2;" horiz-adv-x="519" d="M318 545h-66l-95 146h76zM464 242q0 -249 -204 -249q-205 0 -205 248q0 251 205 251q204 0 204 -250zM397 241q0 87 -25 130q-32 55 -113 55q-80 0 -112 -55q-25 -43 -25 -130q0 -86 25 -128q32 -55 112 -55q81 0 113 55q25 42 25 128z" />
<glyph unicode="&#xf3;" horiz-adv-x="519" d="M375 691l-95 -146h-66l85 146h76zM464 242q0 -249 -204 -249q-205 0 -205 248q0 251 205 251q204 0 204 -250zM397 241q0 87 -25 130q-32 55 -113 55q-80 0 -112 -55q-25 -43 -25 -130q0 -86 25 -128q32 -55 112 -55q81 0 113 55q25 42 25 128z" />
<glyph unicode="&#xf4;" horiz-adv-x="519" d="M397 533h-75l-67 104l-67 -104h-75l95 146h95zM464 242q0 -249 -204 -249q-205 0 -205 248q0 251 205 251q204 0 204 -250zM397 241q0 87 -25 130q-32 55 -113 55q-80 0 -112 -55q-25 -43 -25 -130q0 -86 25 -128q32 -55 112 -55q81 0 113 55q25 42 25 128z" />
<glyph unicode="&#xf5;" horiz-adv-x="519" d="M427 596q-44 -58 -93 -58q-29 0 -77.5 21.5t-66.5 21.5t-44 -34l-49 40q45 58 94 58q29 0 76 -21.5t66 -21.5q15 0 27 10q2 2 18 24zM464 242q0 -249 -204 -249q-205 0 -205 248q0 251 205 251q204 0 204 -250zM397 241q0 87 -25 130q-32 55 -113 55q-80 0 -112 -55 q-25 -43 -25 -130q0 -86 25 -128q32 -55 112 -55q81 0 113 55q25 42 25 128z" />
<glyph unicode="&#xf6;" horiz-adv-x="519" d="M411 593q0 -21 -14.5 -36t-35.5 -15q-22 0 -36.5 15t-14.5 36t14.5 36t36.5 15q21 0 35.5 -15t14.5 -36zM214 593q0 -21 -15 -36t-36 -15t-35.5 15t-14.5 36t14.5 36t35.5 15t36 -15t15 -36zM464 242q0 -249 -204 -249q-205 0 -205 248q0 251 205 251q204 0 204 -250z M397 241q0 87 -25 130q-32 55 -113 55q-80 0 -112 -55q-25 -43 -25 -130q0 -86 25 -128q32 -55 112 -55q81 0 113 55q25 42 25 128z" />
<glyph unicode="&#xf7;" horiz-adv-x="514" d="M303 429q0 -20 -14 -34t-34 -14t-34 14t-14 34t14 34.5t34 14.5t34 -14.5t14 -34.5zM459 243h-404v61h404v-61zM303 119q0 -21 -14 -35t-34 -14t-34 14t-14 35q0 20 14 34t34 14t34 -14t14 -34z" />
<glyph unicode="&#xf8;" horiz-adv-x="499" d="M454 238q0 -105 -34 -161q-52 -86 -170 -86q-50 0 -92 18l-9 -18h-71l29 52q-62 58 -62 195q0 104 34 160q53 86 171 86q48 0 89 -17l11 20h71l-30 -54q63 -58 63 -195zM387 237q0 95 -30 135l-167 -305q27 -11 59 -11q81 0 114 55q24 40 24 126zM307 409q-26 10 -58 10 q-80 0 -113 -55q-24 -40 -24 -127q0 -92 28 -132z" />
<glyph unicode="&#xf9;" horiz-adv-x="528" d="M312 545h-66l-95 146h76zM453 0h-66v36q-49 -44 -121 -44q-102 0 -149 51.5t-47 163.5v277h67v-277q0 -77 26 -111q30 -39 103 -39q49 0 85 29.5t36 78.5v319h66v-484z" />
<glyph unicode="&#xfa;" horiz-adv-x="528" d="M375 691l-95 -146h-66l85 146h76zM453 0h-66v36q-49 -44 -121 -44q-102 0 -149 51.5t-47 163.5v277h67v-277q0 -77 26 -111q30 -39 103 -39q49 0 85 29.5t36 78.5v319h66v-484z" />
<glyph unicode="&#xfb;" horiz-adv-x="528" d="M401 533h-76l-67 104l-67 -104h-75l95 146h95zM453 0h-66v36q-49 -44 -121 -44q-102 0 -149 51.5t-47 163.5v277h67v-277q0 -77 26 -111q30 -39 103 -39q49 0 85 29.5t36 78.5v319h66v-484z" />
<glyph unicode="&#xfc;" horiz-adv-x="528" d="M411 593q0 -21 -14.5 -36t-35.5 -15q-22 0 -36.5 15t-14.5 36t14.5 36t36.5 15q21 0 35.5 -15t14.5 -36zM214 593q0 -21 -15 -36t-36 -15t-35.5 15t-14.5 36t14.5 36t35.5 15t36 -15t15 -36zM453 0h-66v36q-49 -44 -121 -44q-102 0 -149 51.5t-47 163.5v277h67v-277 q0 -77 26 -111q30 -39 103 -39q49 0 85 29.5t36 78.5v319h66v-484z" />
<glyph unicode="&#xfd;" horiz-adv-x="438" d="M307 691l-95 -146h-66l85 146h76zM432 484l-223 -603q-17 -43 -42 -66q-39 -36 -94 -35h-29l1 67q57 -1 76 17q14 12 25 41l36 95l-176 484h71l141 -389l143 389h71z" />
<glyph unicode="&#xfe;" horiz-adv-x="508" d="M468 238q0 -107 -32 -163q-50 -89 -163 -89q-71 0 -121 40v-246h-67v918h67v-249q50 40 121 40q113 0 163 -89q32 -56 32 -162zM402 237q0 89 -24 130q-31 55 -105 55q-75 0 -106 -55q-12 -22 -15 -57v-146q3 -35 15 -56q31 -55 106 -55q74 0 105 55q24 41 24 129z" />
<glyph unicode="&#xff;" horiz-adv-x="487" d="M392 593q0 -21 -15 -36t-36 -15t-36 15t-15 36t15 36t36 15t36 -15t15 -36zM195 593q0 -21 -15 -36t-36 -15t-36 15t-15 36t15 36t36 15t36 -15t15 -36zM457 484l-224 -603q-38 -102 -136 -101h-29l1 67l20 -1q34 0 51.5 13t29.5 46l36 95l-176 484h71l141 -389l143 389 h72z" />
<glyph unicode="&#x131;" horiz-adv-x="231" d="M151 0h-71v487h71v-487z" />
<glyph unicode="&#x141;" horiz-adv-x="496" d="M471 0h-404v257l-37 -16v70l37 17v370h69v-340l165 73v-71l-165 -72v-219h335v-69z" />
<glyph unicode="&#x142;" horiz-adv-x="249" d="M219 338l-73 -33v-187q0 -29 8 -39q9 -13 38 -13v-66q-67 0 -94 43q-17 28 -17 75v156l-51 -24v71l51 24v353h65v-323l73 34v-71z" />
<glyph unicode="&#x152;" horiz-adv-x="1006" d="M961 0h-425v91q-78 -100 -211 -100q-147 0 -224 119q-56 85 -56 239q0 155 56 239q77 119 224 119q133 0 210 -99v90h426v-68h-356v-232h308v-69h-308v-261h356v-68zM535 349q0 134 -44 202q-57 87 -166 87t-165 -87q-45 -68 -45 -202t45 -202q56 -87 165 -87t166 87 q44 68 44 202z" />
<glyph unicode="&#x153;" horiz-adv-x="836" d="M791 220h-332q3 -73 26 -108q37 -56 125 -56q82 0 127 56l53 -40q-65 -81 -179 -81q-129 0 -185 89q-53 -89 -174 -89q-119 0 -173 86q-34 56 -34 163q0 108 34 164q54 86 173 86q121 0 174 -89q55 89 175 89q105 0 161 -85q21 -33 27 -90q2 -26 2 -95zM723 285 q-3 61 -18 84q-36 55 -104 55q-79 0 -116 -55q-19 -29 -24 -84h262zM391 240q0 90 -25 130q-33 54 -114 54t-115 -54q-24 -40 -25 -130q0 -89 25 -129q34 -55 115 -55t114 55q25 40 25 129z" />
<glyph unicode="&#x160;" horiz-adv-x="626" d="M466 921l-104 -146h-96l-104 146h85l67 -105l67 105h85zM571 197q0 -55 -30 -103q-64 -105 -216 -105q-235 0 -271 205l68 12q17 -93 90 -126q47 -22 113 -22q113 0 156 71q20 32 20 68q0 71 -74 107q-32 15 -133 39q-125 30 -165 68q-48 46 -48 115q0 77 62 129 q56 48 161 48q166 0 231 -117q5 -9 15 -31l-62 -29q-29 60 -68 82q-45 26 -116 26q-79 0 -116.5 -31.5t-37.5 -76.5q0 -48 35 -72q31 -21 125 -44q108 -26 148 -44q113 -55 113 -169z" />
<glyph unicode="&#x161;" horiz-adv-x="482" d="M402 679l-104 -146h-95l-105 146h85l67 -105l67 105h85zM433 138q0 -39 -22 -74q-47 -73 -158 -73q-171 0 -198 147l66 12q18 -94 132 -94q74 0 102 43q12 19 12 39q0 41 -46 62q-22 10 -91 26q-90 20 -119 47q-37 34 -37 84q0 56 47 94q41 34 118 34q120 0 168 -82 q3 -6 13 -24l-60 -29q-20 40 -44 53q-29 16 -77 16q-53 0 -75.5 -18.5t-22.5 -43.5q0 -22 15.5 -36t90 -31t102.5 -30q84 -39 84 -122z" />
<glyph unicode="&#x178;" horiz-adv-x="597" d="M455 826q0 -21 -15 -36t-36 -15t-36 15t-15 36t15 36t36 15t36 -15t15 -36zM248 826q0 -21 -15 -36t-36 -15t-36 15t-15 36t15 36t36 15t36 -15t15 -36zM562 698l-229 -467v-231h-69v233l-229 465h77l187 -379l186 379h77z" />
<glyph unicode="&#x17d;" horiz-adv-x="601" d="M470 921l-105 -146h-95l-105 146h85l67 -105l67 105h86zM536 0h-481v58l392 572h-357v68h446v-61l-390 -568h390v-69z" />
<glyph unicode="&#x17e;" horiz-adv-x="476" d="M396 679l-105 -146h-95l-105 146h85l67 -105l67 105h86zM421 0h-371v63l282 356h-259v65h348v-60l-284 -358h284v-66z" />
<glyph unicode="&#x192;" horiz-adv-x="372" d="M347 698v-66q-70 0 -104 -40q-30 -33 -42 -104l-9 -52h75v-67h-87l-100 -571l-65 12l98 559h-60v67h71l12 63q14 86 51 131q56 68 160 68z" />
<glyph unicode="&#x2c6;" horiz-adv-x="467" d="M375 533h-75l-67 104l-67 -104h-75l95 146h95z" />
<glyph unicode="&#x2c7;" horiz-adv-x="467" d="M385 679l-104 -146h-95l-105 146h85l67 -105l67 105h85z" />
<glyph unicode="&#x2d8;" horiz-adv-x="487" d="M422 698q-23 -57 -71 -90t-108 -33q-59 0 -107 33t-72 90h65q39 -67 114 -67q76 0 115 67h64z" />
<glyph unicode="&#x2d9;" horiz-adv-x="497" d="M299 585q0 -21 -15 -35.5t-36 -14.5t-35.5 14.5t-14.5 35.5q0 22 14.5 36.5t35.5 14.5t36 -14.5t15 -36.5z" />
<glyph unicode="&#x2da;" horiz-adv-x="483" d="M358 649q0 -48 -34 -82.5t-82 -34.5q-49 0 -83 34.5t-34 82.5t34 82t83 34q48 0 82 -34t34 -82zM299 649q0 24 -17 40.5t-40 16.5q-24 0 -41 -16.5t-17 -40.5t17 -40.5t41 -16.5q23 0 40 16.5t17 40.5z" />
<glyph unicode="&#x2db;" horiz-adv-x="509" d="M356 -196h-83l-105 196h68z" />
<glyph unicode="&#x2dc;" horiz-adv-x="495" d="M410 596q-44 -58 -93 -58q-29 0 -77.5 21.5t-66.5 21.5t-44 -34l-49 40q45 58 94 58q29 0 76 -21.5t66 -21.5q15 0 27 10q2 2 18 24z" />
<glyph unicode="&#x2dd;" horiz-adv-x="435" d="M399 716l-101 -146h-69l91 146h79zM276 716l-101 -146h-69l91 146h79z" />
<glyph unicode="&#x3c0;" horiz-adv-x="540" d="M495 0h-28q-58 0 -86 43q-17 27 -17 74v296h-232v-413h-67v478h365v-361q0 -51 37 -51h28v-66z" />
<glyph unicode="&#x2013;" horiz-adv-x="514" d="M459 243h-404v61h404v-61z" />
<glyph unicode="&#x2014;" horiz-adv-x="812" d="M757 243h-702v61h702v-61z" />
<glyph unicode="&#x2018;" horiz-adv-x="237" d="M167 752l-7 -178q-1 -18 -13.5 -30.5t-31.5 -12.5t-33 13t-12 30l7 57l78 121h12z" />
<glyph unicode="&#x2019;" horiz-adv-x="237" d="M167 709l-7 -57l-78 -121h-12l7 178q1 18 13.5 30.5t31.5 12.5t33 -12.5t12 -30.5z" />
<glyph unicode="&#x201a;" horiz-adv-x="237" d="M167 57l-7 -57l-78 -121h-12l7 178q1 18 13.5 30.5t31.5 12.5t33 -12.5t12 -30.5z" />
<glyph unicode="&#x201c;" horiz-adv-x="383" d="M313 752l-7 -178q-1 -18 -14 -30.5t-31 -12.5q-19 0 -33 13t-12 30l7 57l78 121h12zM167 752l-7 -178q-1 -18 -13.5 -30.5t-31.5 -12.5t-33 13t-12 30l7 57l78 121h12z" />
<glyph unicode="&#x201d;" horiz-adv-x="383" d="M312 709l-7 -57l-77 -121h-12l7 178q0 18 13 30.5t31 12.5q20 0 33.5 -12.5t11.5 -30.5zM167 709l-7 -57l-78 -121h-12l7 178q1 18 13.5 30.5t31.5 12.5t33 -12.5t12 -30.5z" />
<glyph unicode="&#x201e;" horiz-adv-x="383" d="M312 57l-7 -57l-77 -121h-12l7 178q0 18 13 30.5t31 12.5q20 0 33.5 -12.5t11.5 -30.5zM167 57l-7 -57l-78 -121h-12l7 178q1 18 13.5 30.5t31.5 12.5t33 -12.5t12 -30.5z" />
<glyph unicode="&#x2020;" horiz-adv-x="499" d="M444 416h-162v-416h-65v416h-162v68h162v214h65v-214h162v-68z" />
<glyph unicode="&#x2021;" horiz-adv-x="499" d="M444 16h-161v-216h-66v216h-162v67h162v332h-162v67h162v216h66v-216h161v-67h-161v-332h161v-67z" />
<glyph unicode="&#x2022;" horiz-adv-x="439" d="M374 338q0 -64 -45 -109.5t-109 -45.5t-109.5 45.5t-45.5 109.5t45.5 109.5t109.5 45.5t109 -45.5t45 -109.5z" />
<glyph unicode="&#x2026;" horiz-adv-x="689" d="M614 45q0 -22 -15.5 -37.5t-37.5 -15.5t-37.5 15.5t-15.5 37.5t15.5 37.5t37.5 15.5t37.5 -15.5t15.5 -37.5zM398 45q0 -22 -15.5 -37.5t-37.5 -15.5t-38 15.5t-16 37.5t16 37.5t38 15.5t37.5 -15.5t15.5 -37.5zM182 45q0 -22 -16 -37.5t-38 -15.5t-37.5 15.5t-15.5 37.5 t15.5 37.5t37.5 15.5t38 -15.5t16 -37.5z" />
<glyph unicode="&#x2030;" horiz-adv-x="956" d="M897 170q0 -75 -29 -122q-35 -57 -106 -57q-73 0 -108 59q-35 -59 -108 -59q-71 0 -106 57q-30 47 -30 122q0 76 30 123q35 56 106 56q73 0 108 -59q35 59 108 59q71 0 106 -56q29 -47 29 -123zM545 636l-281 -636h-62l281 636h62zM336 466q0 -76 -29 -123 q-35 -56 -106 -56t-107 56q-29 46 -29 122q0 75 29 123q36 57 107 57t106 -57q29 -47 29 -122zM841 170q0 124 -79 124q-80 0 -80 -124t80 -124q79 0 79 124zM626 170q0 124 -80 124q-79 0 -79 -124t79 -124q80 0 80 124zM280 466q0 123 -79 123q-80 0 -80 -123 q0 -50 16 -83q21 -41 64 -41q79 0 79 124z" />
<glyph unicode="&#x2039;" horiz-adv-x="314" d="M259 398l-147 -140l147 -140v-92l-214 205v54l213 204z" />
<glyph unicode="&#x203a;" horiz-adv-x="314" d="M269 231l-214 -205v92l146 140l-146 140v91l214 -204v-54z" />
<glyph unicode="&#x2044;" horiz-adv-x="137" d="M253 698l-309 -698h-60l308 698h61z" />
<glyph unicode="&#x2122;" horiz-adv-x="483" d="M423 489h-29v140l-56 -140h-29l-56 140v-140h-28v209h29l70 -174l69 174h30v-209zM205 670h-68v-181h-29v181h-68v28h165v-28z" />
<glyph unicode="&#x2126;" horiz-adv-x="606" d="M551 348q0 -148 -45 -231q-17 -30 -39 -53h72l11 -64h-191v73q56 21 87 76q37 68 37 199q0 132 -37 199q-45 82 -129 82h-28q-84 0 -129 -82q-37 -67 -37 -199q0 -131 37 -199q30 -55 87 -76v-73h-191l11 64h72q-22 23 -39 53q-45 83 -45 231q0 149 45 231 q64 118 189 118h28q124 0 189 -118q45 -82 45 -231z" />
<glyph unicode="&#x2202;" horiz-adv-x="497" d="M442 209q0 -88 -58 -150t-140 -62q-83 0 -140.5 61t-57.5 149t58 152t140 64q65 0 121 -47q-8 125 -56 197q-30 45 -61 56q-11 3 -22 3q-51 0 -104 -67l-51 41q75 95 156 95q22 0 43 -7q68 -24 111 -111q60 -123 61 -357v-17zM375 210q0 60 -39 102.5t-92 42.5 q-54 0 -92 -43.5t-38 -104.5t38 -102t92 -41q53 0 92 42.5t39 103.5z" />
<glyph unicode="&#x2206;" horiz-adv-x="588" d="M573 0h-558l279 712zM476 64l-182 465l-182 -465h364z" />
<glyph unicode="&#x220f;" horiz-adv-x="599" d="M524 -197h-67v882h-315v-882h-67v949h449v-949z" />
<glyph unicode="&#x2211;" horiz-adv-x="516" d="M461 -220h-406v60l252 399l-252 400v59h406v-68h-321l247 -391l-247 -391h321v-68z" />
<glyph unicode="&#x2212;" horiz-adv-x="474" d="M439 243h-404v61h404v-61z" />
<glyph unicode="&#x221a;" horiz-adv-x="618" d="M583 626h-97l-172 -626h-65l-194 485h73l148 -368l158 576h149v-67z" />
<glyph unicode="&#x221e;" horiz-adv-x="766" d="M721 261q3 -57 -33 -94q-41 -41 -107 -42q-81 0 -198 94q-117 -94 -198 -94q-54 1 -93 33q-43 36 -47 100q-3 56 34 93q41 42 106 42q81 0 198 -94q117 94 198 94q54 0 93 -32q44 -36 47 -100zM658 258q-4 74 -77 74q-56 0 -149 -73q93 -73 149 -73q38 0 61 23 q17 18 16 49zM334 259q-93 73 -149 73q-38 0 -61 -23q-17 -18 -16 -48q4 -74 77 -75q56 0 149 73z" />
<glyph unicode="&#x222b;" horiz-adv-x="322" d="M287 631h-57q-36 0 -36 -52v-656q0 -48 -18 -75q-27 -44 -84 -44h-57v67h57q36 0 36 52v656q0 48 17 76q28 43 85 43h57v-67z" />
<glyph unicode="&#x2248;" horiz-adv-x="527" d="M482 360l-14 -13q-47 -44 -107 -44q-37 0 -103 23t-96 23q-33 0 -56 -22l-14 -13l-47 46q61 57 121 57q40 0 109 -24q59 -21 93 -21q30 0 53 21l13 13zM482 205l-14 -12q-47 -45 -107 -45q-37 0 -103 23t-96 23q-33 0 -56 -22l-14 -12l-47 45q61 57 121 57q40 0 109 -24 q59 -21 93 -21q30 0 53 21l13 13z" />
<glyph unicode="&#x2260;" horiz-adv-x="526" d="M471 129h-224l-38 -105l-50 18l31 87h-135v64h159l42 115h-201v64h224l38 105l50 -18l-31 -87h135v-64h-158l-42 -115h200v-64z" />
<glyph unicode="&#x2264;" horiz-adv-x="480" d="M425 82l-370 169v65l370 169v-74l-280 -128l280 -128v-73zM425 0h-370v68h370v-68z" />
<glyph unicode="&#x2265;" horiz-adv-x="480" d="M425 251l-370 -169v73l280 128l-280 128v74l370 -169v-65zM425 0h-370v68h370v-68z" />
<glyph unicode="&#x25ca;" horiz-adv-x="541" d="M486 345l-215 -350l-216 350l216 349zM413 345l-142 231l-143 -231l143 -232z" />
<glyph unicode="&#x25fc;" horiz-adv-x="485" d="M0 485h485v-485h-485v485z" />
<glyph unicode="&#xf001;" horiz-adv-x="476" d="M411 662q0 -19 -13.5 -32.5t-32.5 -13.5t-32.5 13.5t-13.5 32.5t13.5 32.5t32.5 13.5t32.5 -13.5t13.5 -32.5zM394 0h-66v418h-170v-418h-66v418h-47v66h47v11q0 86 29 132q46 71 153 71v-66q-68 0 -94 -37q-22 -31 -22 -100v-10h236v-485z" />
<glyph unicode="&#xf002;" horiz-adv-x="499" d="M444 0q-68 0 -96 43q-18 28 -18 75v514h-66q-61 0 -87 -41q-19 -30 -19 -96v-11h102v-66h-102v-418h-67v418h-46v66h46v11q0 86 30 132q46 71 143 71h133v-580q0 -30 9 -41t37 -11z" />
</font>
</defs>
</svg>
